<svg height="1646" width="720" xmlns="http://www.w3.org/2000/svg">
<rect height="1646" fill="#555" width="720"></rect>
<text fill="#7f7" font-family="Courier New" font-size="12" xml:space="preserve">
<tspan x="10" y="26">14 megabytes installed</tspan>
<tspan x="10" y="42"></tspan>
<tspan x="10" y="58">node_modules</tspan>
<tspan x="10" y="74">└─┬ unpm@1.5.0 </tspan>
<tspan x="10" y="90">  ├─┬ bunyan@1.8.10 </tspan>
<tspan x="10" y="106">  │ ├─┬ dtrace-provider@0.8.1 </tspan>
<tspan x="10" y="122">  │ │ └── nan@2.6.2 </tspan>
<tspan x="10" y="138">  │ ├── moment@2.18.1 </tspan>
<tspan x="10" y="154">  │ ├─┬ mv@2.1.1 </tspan>
<tspan x="10" y="170">  │ │ ├─┬ mkdirp@0.5.1 </tspan>
<tspan x="10" y="186">  │ │ │ └── minimist@0.0.8 </tspan>
<tspan x="10" y="202">  │ │ ├── ncp@2.0.0 </tspan>
<tspan x="10" y="218">  │ │ └─┬ rimraf@2.4.5 </tspan>
<tspan x="10" y="234">  │ │   └─┬ glob@6.0.4 </tspan>
<tspan x="10" y="250">  │ │     ├─┬ inflight@1.0.6 </tspan>
<tspan x="10" y="266">  │ │     │ └── wrappy@1.0.2 </tspan>
<tspan x="10" y="282">  │ │     ├─┬ minimatch@3.0.3 </tspan>
<tspan x="10" y="298">  │ │     │ └─┬ brace-expansion@1.1.7 </tspan>
<tspan x="10" y="314">  │ │     │   ├── balanced-match@0.4.2 </tspan>
<tspan x="10" y="330">  │ │     │   └── concat-map@0.0.1 </tspan>
<tspan x="10" y="346">  │ │     ├── once@1.4.0 </tspan>
<tspan x="10" y="362">  │ │     └── path-is-absolute@1.0.1 </tspan>
<tspan x="10" y="378">  │ └── safe-json-stringify@1.0.4 </tspan>
<tspan x="10" y="394">  ├─┬ concat-stream@1.6.0 </tspan>
<tspan x="10" y="410">  │ ├── inherits@2.0.3 </tspan>
<tspan x="10" y="426">  │ ├─┬ readable-stream@2.2.9 </tspan>
<tspan x="10" y="442">  │ │ ├── buffer-shims@1.0.0 </tspan>
<tspan x="10" y="458">  │ │ ├── core-util-is@1.0.2 </tspan>
<tspan x="10" y="474">  │ │ ├── isarray@1.0.0 </tspan>
<tspan x="10" y="490">  │ │ ├── process-nextick-args@1.0.7 </tspan>
<tspan x="10" y="506">  │ │ ├── string_decoder@1.0.0 </tspan>
<tspan x="10" y="522">  │ │ └── util-deprecate@1.0.2 </tspan>
<tspan x="10" y="538">  │ └── typedarray@0.0.6 </tspan>
<tspan x="10" y="554">  ├── mkdirp@0.3.5 </tspan>
<tspan x="10" y="570">  ├─┬ nopt@2.2.1 </tspan>
<tspan x="10" y="586">  │ └── abbrev@1.1.0 </tspan>
<tspan x="10" y="602">  ├─┬ range_check@1.2.0 </tspan>
<tspan x="10" y="618">  │ └── ipaddr.js@1.0.3 </tspan>
<tspan x="10" y="634">  ├─┬ request@2.81.0 </tspan>
<tspan x="10" y="650">  │ ├── aws-sign2@0.6.0 </tspan>
<tspan x="10" y="666">  │ ├── aws4@1.6.0 </tspan>
<tspan x="10" y="682">  │ ├── caseless@0.12.0 </tspan>
<tspan x="10" y="698">  │ ├─┬ combined-stream@1.0.5 </tspan>
<tspan x="10" y="714">  │ │ └── delayed-stream@1.0.0 </tspan>
<tspan x="10" y="730">  │ ├── extend@3.0.0 </tspan>
<tspan x="10" y="746">  │ ├── forever-agent@0.6.1 </tspan>
<tspan x="10" y="762">  │ ├─┬ form-data@2.1.4 </tspan>
<tspan x="10" y="778">  │ │ └── asynckit@0.4.0 </tspan>
<tspan x="10" y="794">  │ ├─┬ har-validator@4.2.1 </tspan>
<tspan x="10" y="810">  │ │ ├─┬ ajv@4.11.7 </tspan>
<tspan x="10" y="826">  │ │ │ ├── co@4.6.0 </tspan>
<tspan x="10" y="842">  │ │ │ └─┬ json-stable-stringify@1.0.1 </tspan>
<tspan x="10" y="858">  │ │ │   └── jsonify@0.0.0 </tspan>
<tspan x="10" y="874">  │ │ └── har-schema@1.0.5 </tspan>
<tspan x="10" y="890">  │ ├─┬ hawk@3.1.3 </tspan>
<tspan x="10" y="906">  │ │ ├── boom@2.10.1 </tspan>
<tspan x="10" y="922">  │ │ ├── cryptiles@2.0.5 </tspan>
<tspan x="10" y="938">  │ │ ├── hoek@2.16.3 </tspan>
<tspan x="10" y="954">  │ │ └── sntp@1.0.9 </tspan>
<tspan x="10" y="970">  │ ├─┬ http-signature@1.1.1 </tspan>
<tspan x="10" y="986">  │ │ ├── assert-plus@0.2.0 </tspan>
<tspan x="10" y="1002">  │ │ ├─┬ jsprim@1.4.0 </tspan>
<tspan x="10" y="1018">  │ │ │ ├── assert-plus@1.0.0 </tspan>
<tspan x="10" y="1034">  │ │ │ ├── extsprintf@1.0.2 </tspan>
<tspan x="10" y="1050">  │ │ │ ├── json-schema@0.2.3 </tspan>
<tspan x="10" y="1066">  │ │ │ └── verror@1.3.6 </tspan>
<tspan x="10" y="1082">  │ │ └─┬ sshpk@1.13.0 </tspan>
<tspan x="10" y="1098">  │ │   ├── asn1@0.2.3 </tspan>
<tspan x="10" y="1114">  │ │   ├── assert-plus@1.0.0 </tspan>
<tspan x="10" y="1130">  │ │   ├── bcrypt-pbkdf@1.0.1 </tspan>
<tspan x="10" y="1146">  │ │   ├─┬ dashdash@1.14.1 </tspan>
<tspan x="10" y="1162">  │ │   │ └── assert-plus@1.0.0 </tspan>
<tspan x="10" y="1178">  │ │   ├── ecc-jsbn@0.1.1 </tspan>
<tspan x="10" y="1194">  │ │   ├─┬ getpass@0.1.7 </tspan>
<tspan x="10" y="1210">  │ │   │ └── assert-plus@1.0.0 </tspan>
<tspan x="10" y="1226">  │ │   ├── jodid25519@1.0.2 </tspan>
<tspan x="10" y="1242">  │ │   ├── jsbn@0.1.1 </tspan>
<tspan x="10" y="1258">  │ │   └── tweetnacl@0.14.5 </tspan>
<tspan x="10" y="1274">  │ ├── is-typedarray@1.0.0 </tspan>
<tspan x="10" y="1290">  │ ├── isstream@0.1.2 </tspan>
<tspan x="10" y="1306">  │ ├── json-stringify-safe@5.0.1 </tspan>
<tspan x="10" y="1322">  │ ├─┬ mime-types@2.1.15 </tspan>
<tspan x="10" y="1338">  │ │ └── mime-db@1.27.0 </tspan>
<tspan x="10" y="1354">  │ ├── oauth-sign@0.8.2 </tspan>
<tspan x="10" y="1370">  │ ├── performance-now@0.2.0 </tspan>
<tspan x="10" y="1386">  │ ├── qs@6.4.0 </tspan>
<tspan x="10" y="1402">  │ ├── safe-buffer@5.0.1 </tspan>
<tspan x="10" y="1418">  │ ├── stringstream@0.0.5 </tspan>
<tspan x="10" y="1434">  │ ├─┬ tough-cookie@2.3.2 </tspan>
<tspan x="10" y="1450">  │ │ └── punycode@1.4.1 </tspan>
<tspan x="10" y="1466">  │ ├── tunnel-agent@0.6.0 </tspan>
<tspan x="10" y="1482">  │ └── uuid@3.0.1 </tspan>
<tspan x="10" y="1498">  ├── semver@2.3.2 </tspan>
<tspan x="10" y="1514">  ├─┬ unpm-auth@1.1.0 </tspan>
<tspan x="10" y="1530">  │ └── password-hash@1.2.2 </tspan>
<tspan x="10" y="1546">  ├─┬ unpm-fs-backend@0.1.0 </tspan>
<tspan x="10" y="1562">  │ ├─┬ json-readdir-stream@0.0.2 </tspan>
<tspan x="10" y="1578">  │ │ └── through@2.3.4 </tspan>
<tspan x="10" y="1594">  │ └── through@2.3.8 </tspan>
<tspan x="10" y="1610">  └─┬ unpm-router@0.1.0 </tspan>
<tspan x="10" y="1626">    └── routes@0.2.0</tspan>
</text>
</svg>
